<svg xmlns="http://www.w3.org/2000/svg" viewBox="0 0 98 98">
  <g>
    <circle class="points-indicator__icon-background" cx="49" cy="49" r="46.5"/>
    <path class="points-indicator__icon-element" d="M50,6A44,44,0,1,1,6,50,44.05,44.05,0,0,1,50,6m0-5A49,49,0,1,0,99,50,49,49,0,0,0,50,1Z" transform="translate(-1 -1)"/>
  </g>
  <path class="points-indicator__icon-element" d="M47.36,57.14,43,32a7.69,7.69,0,0,1-.11-1.27q0-5.4,7.07-5.41t7.07,5.38A7.09,7.09,0,0,1,57,32L52.64,57.14ZM50,62.3q6.18,0,6.19,6.19T50,74.68q-6.18,0-6.19-6.19T50,62.3Z" transform="translate(-1 -1)"/>
</svg>
